<mxfile host="app.diagrams.net" agent="GitHub Copilot" version="24.7.17">
  <diagram name="CDK Deploy Flow" id="cdk-deploy-flow">
    <mxGraphModel dx="1426" dy="1062" grid="1" gridSize="10" guides="1" tooltips="1" connect="1" arrows="1" fold="1" page="1" pageScale="1" pageWidth="1169" pageHeight="827" math="0" shadow="0">
      <root>
        <mxCell id="0" />
        <mxCell id="1" parent="0" />
        
        <!-- Title -->
        <mxCell id="title" value="CDK デプロイフロー &amp; セキュリティ境界" style="text;html=1;align=center;verticalAlign=middle;resizable=0;points=[];autosize=1;strokeColor=none;fillColor=none;fontSize=18;fontStyle=1;" vertex="1" parent="1">
          <mxGeometry x="400" y="30" width="350" height="30" as="geometry" />
        </mxCell>
        
        <!-- CDK Deploy Process -->
        <mxCell id="deploy-container" value="CDK デプロイプロセス" style="rounded=1;whiteSpace=wrap;html=1;fillColor=#dae8fc;strokeColor=#6c8ebf;verticalAlign=top;fontStyle=1;spacingTop=20;" vertex="1" parent="1">
          <mxGeometry x="50" y="80" width="500" height="200" as="geometry" />
        </mxCell>
        
        <!-- CDK Synth -->
        <mxCell id="cdk-synth" value="cdk synth" style="rounded=1;whiteSpace=wrap;html=1;fillColor=#fff2cc;strokeColor=#d6b656;fontStyle=1;" vertex="1" parent="1">
          <mxGeometry x="80" y="120" width="100" height="40" as="geometry" />
        </mxCell>
        
        <!-- CloudFormation Template -->
        <mxCell id="cf-template" value="CloudFormation&#xa;Template" style="rounded=1;whiteSpace=wrap;html=1;fillColor=#f8cecc;strokeColor=#b85450;fontStyle=1;" vertex="1" parent="1">
          <mxGeometry x="220" y="120" width="100" height="40" as="geometry" />
        </mxCell>
        
        <!-- CDK Deploy -->
        <mxCell id="cdk-deploy" value="cdk deploy" style="rounded=1;whiteSpace=wrap;html=1;fillColor=#d5e8d4;strokeColor=#82b366;fontStyle=1;" vertex="1" parent="1">
          <mxGeometry x="360" y="120" width="100" height="40" as="geometry" />
        </mxCell>
        
        <!-- CloudFormation Stack -->
        <mxCell id="cf-stack-deploy" value="CloudFormation&#xa;Stack" style="rounded=1;whiteSpace=wrap;html=1;fillColor=#e1d5e7;strokeColor=#9673a6;fontStyle=1;" vertex="1" parent="1">
          <mxGeometry x="480" y="120" width="100" height="40" as="geometry" />
        </mxCell>
        
        <!-- Resource Creation Order -->
        <mxCell id="resource-order" value="リソース作成順序" style="rounded=1;whiteSpace=wrap;html=1;fillColor=#fff2cc;strokeColor=#d6b656;verticalAlign=top;fontStyle=1;spacingTop=15;" vertex="1" parent="1">
          <mxGeometry x="80" y="180" width="440" height="80" as="geometry" />
        </mxCell>
        
        <mxCell id="step1" value="1. IAM Role" style="rounded=1;whiteSpace=wrap;html=1;fillColor=#ffcccc;" vertex="1" parent="1">
          <mxGeometry x="90" y="210" width="70" height="30" as="geometry" />
        </mxCell>
        
        <mxCell id="step2" value="2. DynamoDB" style="rounded=1;whiteSpace=wrap;html=1;fillColor=#ffcccc;" vertex="1" parent="1">
          <mxGeometry x="180" y="210" width="70" height="30" as="geometry" />
        </mxCell>
        
        <mxCell id="step3" value="3. Grant Perms" style="rounded=1;whiteSpace=wrap;html=1;fillColor=#ffcccc;" vertex="1" parent="1">
          <mxGeometry x="270" y="210" width="70" height="30" as="geometry" />
        </mxCell>
        
        <mxCell id="step4" value="4. Lambda" style="rounded=1;whiteSpace=wrap;html=1;fillColor=#ffcccc;" vertex="1" parent="1">
          <mxGeometry x="360" y="210" width="70" height="30" as="geometry" />
        </mxCell>
        
        <mxCell id="step5" value="5. API Gateway" style="rounded=1;whiteSpace=wrap;html=1;fillColor=#ffcccc;" vertex="1" parent="1">
          <mxGeometry x="450" y="210" width="70" height="30" as="geometry" />
        </mxCell>
        
        <!-- Security Boundaries -->
        <mxCell id="security-container" value="セキュリティ境界 &amp; IAM 権限" style="rounded=1;whiteSpace=wrap;html=1;fillColor=#f8cecc;strokeColor=#b85450;verticalAlign=top;fontStyle=1;spacingTop=20;" vertex="1" parent="1">
          <mxGeometry x="600" y="80" width="500" height="350" as="geometry" />
        </mxCell>
        
        <!-- Lambda Service Principal -->
        <mxCell id="lambda-principal" value="lambda.amazonaws.com&#xa;(Service Principal)" style="rounded=1;whiteSpace=wrap;html=1;fillColor=#e1d5e7;strokeColor=#9673a6;fontStyle=1;" vertex="1" parent="1">
          <mxGeometry x="630" y="120" width="140" height="50" as="geometry" />
        </mxCell>
        
        <!-- Lambda Role -->
        <mxCell id="lambda-role-sec" value="IAM Role&#xa;LambdaRole" style="rounded=1;whiteSpace=wrap;html=1;fillColor=#dae8fc;strokeColor=#6c8ebf;fontStyle=1;" vertex="1" parent="1">
          <mxGeometry x="630" y="200" width="100" height="50" as="geometry" />
        </mxCell>
        
        <!-- Basic Execution Role -->
        <mxCell id="basic-execution" value="AWSLambdaBasicExecutionRole&#xa;(Managed Policy)" style="rounded=1;whiteSpace=wrap;html=1;fillColor=#d5e8d4;strokeColor=#82b366;fontStyle=1;" vertex="1" parent="1">
          <mxGeometry x="800" y="160" width="180" height="50" as="geometry" />
        </mxCell>
        
        <!-- DynamoDB Permissions -->
        <mxCell id="dynamodb-perms" value="DynamoDB Permissions&#xa;(grantReadWriteData)" style="rounded=1;whiteSpace=wrap;html=1;fillColor=#d5e8d4;strokeColor=#82b366;fontStyle=1;" vertex="1" parent="1">
          <mxGeometry x="800" y="240" width="180" height="50" as="geometry" />
        </mxCell>
        
        <!-- CloudWatch Logs -->
        <mxCell id="cw-logs-perms" value="CloudWatch Logs&#xa;CreateLogGroup, PutLogEvents" style="rounded=1;whiteSpace=wrap;html=1;fillColor=#fff2cc;strokeColor=#d6b656;fontStyle=1;" vertex="1" parent="1">
          <mxGeometry x="630" y="300" width="180" height="50" as="geometry" />
        </mxCell>
        
        <!-- DynamoDB Resource -->
        <mxCell id="dynamodb-resource" value="DynamoDB Table: AuthData&#xa;arn:aws:dynamodb:region:account:table/AuthData" style="rounded=1;whiteSpace=wrap;html=1;fillColor=#ffcccc;strokeColor=#cc0000;fontStyle=1;" vertex="1" parent="1">
          <mxGeometry x="830" y="320" width="250" height="50" as="geometry" />
        </mxCell>
        
        <!-- Current Security Issues -->
        <mxCell id="security-issues" value="現在のセキュリティ課題" style="rounded=1;whiteSpace=wrap;html=1;fillColor=#ffebee;strokeColor=#f44336;verticalAlign=top;fontStyle=1;spacingTop=15;" vertex="1" parent="1">
          <mxGeometry x="50" y="320" width="500" height="200" as="geometry" />
        </mxCell>
        
        <mxCell id="issue1" value="❌ パスワード平文保存" style="text;html=1;align=left;verticalAlign=middle;resizable=0;points=[];autosize=1;strokeColor=none;fillColor=none;fontSize=12;fontColor=#d32f2f;" vertex="1" parent="1">
          <mxGeometry x="70" y="350" width="150" height="30" as="geometry" />
        </mxCell>
        
        <mxCell id="issue2" value="❌ API認証なし (認可制御なし)" style="text;html=1;align=left;verticalAlign=middle;resizable=0;points=[];autosize=1;strokeColor=none;fillColor=none;fontSize=12;fontColor=#d32f2f;" vertex="1" parent="1">
          <mxGeometry x="70" y="380" width="200" height="30" as="geometry" />
        </mxCell>
        
        <mxCell id="issue3" value="⚠️ CORS: ALL_ORIGINS (本番非推奨)" style="text;html=1;align=left;verticalAlign=middle;resizable=0;points=[];autosize=1;strokeColor=none;fillColor=none;fontSize=12;fontColor=#f57c00;" vertex="1" parent="1">
          <mxGeometry x="70" y="410" width="230" height="30" as="geometry" />
        </mxCell>
        
        <mxCell id="issue4" value="⚠️ RemovalPolicy: DESTROY" style="text;html=1;align=left;verticalAlign=middle;resizable=0;points=[];autosize=1;strokeColor=none;fillColor=none;fontSize=12;fontColor=#f57c00;" vertex="1" parent="1">
          <mxGeometry x="70" y="440" width="180" height="30" as="geometry" />
        </mxCell>
        
        <mxCell id="issue5" value="⚠️ ログに機密情報混入リスク" style="text;html=1;align=left;verticalAlign=middle;resizable=0;points=[];autosize=1;strokeColor=none;fillColor=none;fontSize=12;fontColor=#f57c00;" vertex="1" parent="1">
          <mxGeometry x="70" y="470" width="190" height="30" as="geometry" />
        </mxCell>
        
        <!-- Recommended Improvements -->
        <mxCell id="improvements" value="推奨セキュリティ改善" style="rounded=1;whiteSpace=wrap;html=1;fillColor=#e8f5e8;strokeColor=#4caf50;verticalAlign=top;fontStyle=1;spacingTop=15;" vertex="1" parent="1">
          <mxGeometry x="280" y="350" width="250" height="150" as="geometry" />
        </mxCell>
        
        <mxCell id="improvement1" value="✅ bcrypt パスワードハッシュ化" style="text;html=1;align=left;verticalAlign=middle;resizable=0;points=[];autosize=1;strokeColor=none;fillColor=none;fontSize=11;fontColor=#2e7d32;" vertex="1" parent="1">
          <mxGeometry x="290" y="380" width="180" height="30" as="geometry" />
        </mxCell>
        
        <mxCell id="improvement2" value="✅ Cognito JWT Authorizer" style="text;html=1;align=left;verticalAlign=middle;resizable=0;points=[];autosize=1;strokeColor=none;fillColor=none;fontSize=11;fontColor=#2e7d32;" vertex="1" parent="1">
          <mxGeometry x="290" y="405" width="170" height="30" as="geometry" />
        </mxCell>
        
        <mxCell id="improvement3" value="✅ CORS Origin 制限" style="text;html=1;align=left;verticalAlign=middle;resizable=0;points=[];autosize=1;strokeColor=none;fillColor=none;fontSize=11;fontColor=#2e7d32;" vertex="1" parent="1">
          <mxGeometry x="290" y="430" width="130" height="30" as="geometry" />
        </mxCell>
        
        <mxCell id="improvement4" value="✅ DynamoDB 暗号化 (CMK)" style="text;html=1;align=left;verticalAlign=middle;resizable=0;points=[];autosize=1;strokeColor=none;fillColor=none;fontSize=11;fontColor=#2e7d32;" vertex="1" parent="1">
          <mxGeometry x="290" y="455" width="170" height="30" as="geometry" />
        </mxCell>
        
        <!-- Environment Variables Flow -->
        <mxCell id="env-flow" value="環境変数 &amp; 設定の流れ" style="rounded=1;whiteSpace=wrap;html=1;fillColor=#fff3e0;strokeColor=#f57c00;verticalAlign=top;fontStyle=1;spacingTop=15;" vertex="1" parent="1">
          <mxGeometry x="50" y="560" width="1050" height="120" as="geometry" />
        </mxCell>
        
        <mxCell id="env1" value="CDK Stack" style="rounded=1;whiteSpace=wrap;html=1;fillColor=#ffcc02;" vertex="1" parent="1">
          <mxGeometry x="80" y="600" width="80" height="30" as="geometry" />
        </mxCell>
        
        <mxCell id="env2" value="authTable.tableName" style="rounded=1;whiteSpace=wrap;html=1;fillColor=#ffcc02;" vertex="1" parent="1">
          <mxGeometry x="200" y="600" width="120" height="30" as="geometry" />
        </mxCell>
        
        <mxCell id="env3" value="Lambda Environment" style="rounded=1;whiteSpace=wrap;html=1;fillColor=#ffcc02;" vertex="1" parent="1">
          <mxGeometry x="360" y="600" width="120" height="30" as="geometry" />
        </mxCell>
        
        <mxCell id="env4" value="AUTH_TABLE_NAME=AuthData" style="rounded=1;whiteSpace=wrap;html=1;fillColor=#ffcc02;" vertex="1" parent="1">
          <mxGeometry x="520" y="600" width="150" height="30" as="geometry" />
        </mxCell>
        
        <mxCell id="env5" value="CloudFormation Output" style="rounded=1;whiteSpace=wrap;html=1;fillColor=#ffcc02;" vertex="1" parent="1">
          <mxGeometry x="710" y="600" width="130" height="30" as="geometry" />
        </mxCell>
        
        <mxCell id="env6" value="ApiGatewayUrl" style="rounded=1;whiteSpace=wrap;html=1;fillColor=#ffcc02;" vertex="1" parent="1">
          <mxGeometry x="880" y="600" width="100" height="30" as="geometry" />
        </mxCell>
        
        <mxCell id="env7" value="Frontend .env.local" style="rounded=1;whiteSpace=wrap;html=1;fillColor=#ffcc02;" vertex="1" parent="1">
          <mxGeometry x="1020" y="600" width="120" height="30" as="geometry" />
        </mxCell>
        
        <!-- Arrows for deploy flow -->
        <mxCell id="arrow1" value="" style="edgeStyle=orthogonalEdgeStyle;html=1;endArrow=block;elbow=vertical;startArrow=none;endFill=1;strokeColor=#0066CC;rounded=0;strokeWidth=2;" edge="1" parent="1" source="cdk-synth" target="cf-template">
          <mxGeometry width="100" relative="1" as="geometry" />
        </mxCell>
        
        <mxCell id="arrow2" value="" style="edgeStyle=orthogonalEdgeStyle;html=1;endArrow=block;elbow=vertical;startArrow=none;endFill=1;strokeColor=#0066CC;rounded=0;strokeWidth=2;" edge="1" parent="1" source="cf-template" target="cdk-deploy">
          <mxGeometry width="100" relative="1" as="geometry" />
        </mxCell>
        
        <mxCell id="arrow3" value="" style="edgeStyle=orthogonalEdgeStyle;html=1;endArrow=block;elbow=vertical;startArrow=none;endFill=1;strokeColor=#0066CC;rounded=0;strokeWidth=2;" edge="1" parent="1" source="cdk-deploy" target="cf-stack-deploy">
          <mxGeometry width="100" relative="1" as="geometry" />
        </mxCell>
        
        <!-- IAM Arrows -->
        <mxCell id="trust-arrow" value="AssumeRole" style="edgeStyle=orthogonalEdgeStyle;html=1;endArrow=block;elbow=vertical;startArrow=none;endFill=1;strokeColor=#9C27B0;rounded=0;strokeWidth=2;" edge="1" parent="1" source="lambda-principal" target="lambda-role-sec">
          <mxGeometry width="100" relative="1" as="geometry" />
        </mxCell>
        
        <mxCell id="basic-arrow" value="" style="edgeStyle=orthogonalEdgeStyle;html=1;endArrow=block;elbow=vertical;startArrow=none;endFill=1;strokeColor=#4CAF50;rounded=0;strokeWidth=2;" edge="1" parent="1" source="lambda-role-sec" target="basic-execution">
          <mxGeometry width="100" relative="1" as="geometry" />
        </mxCell>
        
        <mxCell id="dynamo-arrow" value="" style="edgeStyle=orthogonalEdgeStyle;html=1;endArrow=block;elbow=vertical;startArrow=none;endFill=1;strokeColor=#4CAF50;rounded=0;strokeWidth=2;" edge="1" parent="1" source="lambda-role-sec" target="dynamodb-perms">
          <mxGeometry width="100" relative="1" as="geometry" />
        </mxCell>
        
        <mxCell id="logs-arrow" value="" style="edgeStyle=orthogonalEdgeStyle;html=1;endArrow=block;elbow=vertical;startArrow=none;endFill=1;strokeColor=#FF9800;rounded=0;strokeWidth=2;" edge="1" parent="1" source="lambda-role-sec" target="cw-logs-perms">
          <mxGeometry width="100" relative="1" as="geometry" />
        </mxCell>
        
        <mxCell id="resource-arrow" value="" style="edgeStyle=orthogonalEdgeStyle;html=1;endArrow=block;elbow=vertical;startArrow=none;endFill=1;strokeColor=#F44336;rounded=0;strokeWidth=2;" edge="1" parent="1" source="dynamodb-perms" target="dynamodb-resource">
          <mxGeometry width="100" relative="1" as="geometry" />
        </mxCell>
        
        <!-- Environment flow arrows -->
        <mxCell id="env-arrow1" value="" style="edgeStyle=orthogonalEdgeStyle;html=1;endArrow=block;elbow=vertical;startArrow=none;endFill=1;strokeColor=#FF8F00;rounded=0;strokeWidth=1;" edge="1" parent="1" source="env1" target="env2">
          <mxGeometry width="100" relative="1" as="geometry" />
        </mxCell>
        
        <mxCell id="env-arrow2" value="" style="edgeStyle=orthogonalEdgeStyle;html=1;endArrow=block;elbow=vertical;startArrow=none;endFill=1;strokeColor=#FF8F00;rounded=0;strokeWidth=1;" edge="1" parent="1" source="env2" target="env3">
          <mxGeometry width="100" relative="1" as="geometry" />
        </mxCell>
        
        <mxCell id="env-arrow3" value="" style="edgeStyle=orthogonalEdgeStyle;html=1;endArrow=block;elbow=vertical;startArrow=none;endFill=1;strokeColor=#FF8F00;rounded=0;strokeWidth=1;" edge="1" parent="1" source="env3" target="env4">
          <mxGeometry width="100" relative="1" as="geometry" />
        </mxCell>
        
        <mxCell id="env-arrow4" value="" style="edgeStyle=orthogonalEdgeStyle;html=1;endArrow=block;elbow=vertical;startArrow=none;endFill=1;strokeColor=#FF8F00;rounded=0;strokeWidth=1;" edge="1" parent="1" source="env4" target="env5">
          <mxGeometry width="100" relative="1" as="geometry" />
        </mxCell>
        
        <mxCell id="env-arrow5" value="" style="edgeStyle=orthogonalEdgeStyle;html=1;endArrow=block;elbow=vertical;startArrow=none;endFill=1;strokeColor=#FF8F00;rounded=0;strokeWidth=1;" edge="1" parent="1" source="env5" target="env6">
          <mxGeometry width="100" relative="1" as="geometry" />
        </mxCell>
        
        <mxCell id="env-arrow6" value="" style="edgeStyle=orthogonalEdgeStyle;html=1;endArrow=block;elbow=vertical;startArrow=none;endFill=1;strokeColor=#FF8F00;rounded=0;strokeWidth=1;" edge="1" parent="1" source="env6" target="env7">
          <mxGeometry width="100" relative="1" as="geometry" />
        </mxCell>
        
      </root>
    </mxGraphModel>
  </diagram>
</mxfile>
